{
    "asset" : {
        "generator" : "Khronos glTF Blender I/O v3.2.43",
        "version" : "2.0"
    },
    "scene" : 0,
    "scenes" : [
        {
            "name" : "Scene",
            "nodes" : [
                2,
                5
            ]
        }
    ],
    "nodes" : [
        {
            "mesh" : 0,
            "name" : "Sphere",
            "rotation" : [
                0,
                0,
                0.7071068286895752,
                0.7071068286895752
            ],
            "translation" : [
                0,
                1,
                0
            ]
        },
        {
            "mesh" : 1,
            "name" : "Sphere.001",
            "rotation" : [
                0,
                0,
                0.7071068286895752,
                0.7071068286895752
            ],
            "translation" : [
                0,
                -1,
                0
            ]
        },
        {
            "children" : [
                0,
                1
            ],
            "mesh" : 2,
            "name" : "Cylinder",
            "rotation" : [
                -0.27059805393218994,
                0.27059808373451233,
                -0.653281569480896,
                0.6532814502716064
            ]
        },
        {
            "mesh" : 3,
            "name" : "Sphere.002",
            "rotation" : [
                0,
                0,
                0.7071068286895752,
                0.7071068286895752
            ],
            "translation" : [
                0,
                -1,
                0
            ]
        },
        {
            "mesh" : 4,
            "name" : "Sphere.003",
            "rotation" : [
                0,
                0,
                0.7071068286895752,
                0.7071068286895752
            ],
            "translation" : [
                0,
                1,
                0
            ]
        },
        {
            "children" : [
                3,
                4
            ],
            "mesh" : 5,
            "name" : "Cylinder.001",
            "rotation" : [
                0.27059805393218994,
                -0.27059808373451233,
                -0.653281569480896,
                0.6532814502716064
            ]
        }
    ],
    "materials" : [
        {
            "doubleSided" : true,
            "name" : "BlueFunkyMetal",
            "pbrMetallicRoughness" : {
                "baseColorTexture" : {
                    "index" : 0
                },
                "metallicFactor" : 0,
                "roughnessFactor" : 0.5
            }
        }
    ],
    "meshes" : [
        {
            "name" : "Sphere.002",
            "primitives" : [
                {
                    "attributes" : {
                        "POSITION" : 0,
                        "NORMAL" : 1,
                        "TEXCOORD_0" : 2
                    },
                    "indices" : 3,
                    "material" : 0
                }
            ]
        },
        {
            "name" : "Sphere.003",
            "primitives" : [
                {
                    "attributes" : {
                        "POSITION" : 4,
                        "NORMAL" : 5,
                        "TEXCOORD_0" : 6
                    },
                    "indices" : 7,
                    "material" : 0
                }
            ]
        },
        {
            "name" : "Cylinder",
            "primitives" : [
                {
                    "attributes" : {
                        "POSITION" : 8,
                        "NORMAL" : 9,
                        "TEXCOORD_0" : 10
                    },
                    "indices" : 11,
                    "material" : 0
                }
            ]
        },
        {
            "name" : "Sphere.004",
            "primitives" : [
                {
                    "attributes" : {
                        "POSITION" : 12,
                        "NORMAL" : 13,
                        "TEXCOORD_0" : 14
                    },
                    "indices" : 7,
                    "material" : 0
                }
            ]
        },
        {
            "name" : "Sphere.005",
            "primitives" : [
                {
                    "attributes" : {
                        "POSITION" : 15,
                        "NORMAL" : 16,
                        "TEXCOORD_0" : 17
                    },
                    "indices" : 3,
                    "material" : 0
                }
            ]
        },
        {
            "name" : "Cylinder.002",
            "primitives" : [
                {
                    "attributes" : {
                        "POSITION" : 18,
                        "NORMAL" : 19,
                        "TEXCOORD_0" : 20
                    },
                    "indices" : 11,
                    "material" : 0
                }
            ]
        }
    ],
    "textures" : [
        {
            "sampler" : 0,
            "source" : 0
        }
    ],
    "images" : [
        {
            "bufferView" : 4,
            "mimeType" : "image/png",
            "name" : "x"
        }
    ],
    "accessors" : [
        {
            "bufferView" : 0,
            "componentType" : 5126,
            "count" : 992,
            "max" : [
                0.1499999761581421,
                0.15000000596046448,
                0.1499999314546585
            ],
            "min" : [
                -2.421438694000244e-08,
                -0.15000000596046448,
                -0.15000000596046448
            ],
            "type" : "VEC3"
        },
        {
            "bufferView" : 1,
            "componentType" : 5126,
            "count" : 992,
            "type" : "VEC3"
        },
        {
            "bufferView" : 2,
            "componentType" : 5126,
            "count" : 992,
            "type" : "VEC2"
        },
        {
            "bufferView" : 3,
            "componentType" : 5123,
            "count" : 1440,
            "type" : "SCALAR"
        },
        {
            "bufferView" : 5,
            "componentType" : 5126,
            "count" : 992,
            "max" : [
                3.166496753692627e-08,
                0.15000000596046448,
                0.1499999314546585
            ],
            "min" : [
                -0.14999987185001373,
                -0.15000000596046448,
                -0.15000000596046448
            ],
            "type" : "VEC3"
        },
        {
            "bufferView" : 6,
            "componentType" : 5126,
            "count" : 992,
            "type" : "VEC3"
        },
        {
            "bufferView" : 7,
            "componentType" : 5126,
            "count" : 992,
            "type" : "VEC2"
        },
        {
            "bufferView" : 8,
            "componentType" : 5123,
            "count" : 1440,
            "type" : "SCALAR"
        },
        {
            "bufferView" : 9,
            "componentType" : 5126,
            "count" : 128,
            "max" : [
                0.15000000596046448,
                1,
                0.15000000596046448
            ],
            "min" : [
                -0.15000000596046448,
                -1,
                -0.15000000596046448
            ],
            "type" : "VEC3"
        },
        {
            "bufferView" : 10,
            "componentType" : 5126,
            "count" : 128,
            "type" : "VEC3"
        },
        {
            "bufferView" : 11,
            "componentType" : 5126,
            "count" : 128,
            "type" : "VEC2"
        },
        {
            "bufferView" : 12,
            "componentType" : 5123,
            "count" : 192,
            "type" : "SCALAR"
        },
        {
            "bufferView" : 13,
            "componentType" : 5126,
            "count" : 992,
            "max" : [
                3.166496753692627e-08,
                0.15000000596046448,
                0.1499999314546585
            ],
            "min" : [
                -0.14999987185001373,
                -0.15000000596046448,
                -0.15000000596046448
            ],
            "type" : "VEC3"
        },
        {
            "bufferView" : 14,
            "componentType" : 5126,
            "count" : 992,
            "type" : "VEC3"
        },
        {
            "bufferView" : 15,
            "componentType" : 5126,
            "count" : 992,
            "type" : "VEC2"
        },
        {
            "bufferView" : 16,
            "componentType" : 5126,
            "count" : 992,
            "max" : [
                0.1499999761581421,
                0.15000000596046448,
                0.1499999314546585
            ],
            "min" : [
                -2.421438694000244e-08,
                -0.15000000596046448,
                -0.15000000596046448
            ],
            "type" : "VEC3"
        },
        {
            "bufferView" : 17,
            "componentType" : 5126,
            "count" : 992,
            "type" : "VEC3"
        },
        {
            "bufferView" : 18,
            "componentType" : 5126,
            "count" : 992,
            "type" : "VEC2"
        },
        {
            "bufferView" : 19,
            "componentType" : 5126,
            "count" : 128,
            "max" : [
                0.15000000596046448,
                1,
                0.15000000596046448
            ],
            "min" : [
                -0.15000000596046448,
                -1,
                -0.15000000596046448
            ],
            "type" : "VEC3"
        },
        {
            "bufferView" : 20,
            "componentType" : 5126,
            "count" : 128,
            "type" : "VEC3"
        },
        {
            "bufferView" : 21,
            "componentType" : 5126,
            "count" : 128,
            "type" : "VEC2"
        }
    ],
    "bufferViews" : [
        {
            "buffer" : 0,
            "byteLength" : 11904,
            "byteOffset" : 0
        },
        {
            "buffer" : 0,
            "byteLength" : 11904,
            "byteOffset" : 11904
        },
        {
            "buffer" : 0,
            "byteLength" : 7936,
            "byteOffset" : 23808
        },
        {
            "buffer" : 0,
            "byteLength" : 2880,
            "byteOffset" : 31744
        },
        {
            "buffer" : 0,
            "byteLength" : 2663484,
            "byteOffset" : 34624
        },
        {
            "buffer" : 0,
            "byteLength" : 11904,
            "byteOffset" : 2698108
        },
        {
            "buffer" : 0,
            "byteLength" : 11904,
            "byteOffset" : 2710012
        },
        {
            "buffer" : 0,
            "byteLength" : 7936,
            "byteOffset" : 2721916
        },
        {
            "buffer" : 0,
            "byteLength" : 2880,
            "byteOffset" : 2729852
        },
        {
            "buffer" : 0,
            "byteLength" : 1536,
            "byteOffset" : 2732732
        },
        {
            "buffer" : 0,
            "byteLength" : 1536,
            "byteOffset" : 2734268
        },
        {
            "buffer" : 0,
            "byteLength" : 1024,
            "byteOffset" : 2735804
        },
        {
            "buffer" : 0,
            "byteLength" : 384,
            "byteOffset" : 2736828
        },
        {
            "buffer" : 0,
            "byteLength" : 11904,
            "byteOffset" : 2737212
        },
        {
            "buffer" : 0,
            "byteLength" : 11904,
            "byteOffset" : 2749116
        },
        {
            "buffer" : 0,
            "byteLength" : 7936,
            "byteOffset" : 2761020
        },
        {
            "buffer" : 0,
            "byteLength" : 11904,
            "byteOffset" : 2768956
        },
        {
            "buffer" : 0,
            "byteLength" : 11904,
            "byteOffset" : 2780860
        },
        {
            "buffer" : 0,
            "byteLength" : 7936,
            "byteOffset" : 2792764
        },
        {
            "buffer" : 0,
            "byteLength" : 1536,
            "byteOffset" : 2800700
        },
        {
            "buffer" : 0,
            "byteLength" : 1536,
            "byteOffset" : 2802236
        },
        {
            "buffer" : 0,
            "byteLength" : 1024,
            "byteOffset" : 2803772
        }
    ],
    "samplers" : [
        {
            "magFilter" : 9729,
            "minFilter" : 9987
        }
    ],
    "buffers" : [
        {
            "byteLength" : 2804796,
            "uri" : "data:application/octet-stream;base64,"
        }
    ]
}
